<?xml version="1.0" standalone="no"?>
<!DOCTYPE svg PUBLIC "-//W3C//DTD SVG 1.1//EN" "http://www.w3.org/Graphics/SVG/1.1/DTD/svg11.dtd" >
<svg xmlns="http://www.w3.org/2000/svg" xmlns:xlink="http://www.w3.org/1999/xlink" version="1.1">
<metadata>
Created by FontForge 20141024 at Wed Mar 16 09:04:31 2016
 By Jimmy Warting
</metadata>
<defs>
<font id="Hotdeal" horiz-adv-x="1024" >
  <font-face 
    font-family="Hotdeal"
    font-weight="400"
    font-stretch="normal"
    units-per-em="1024"
    panose-1="0 0 0 0 0 0 0 0 0 0"
    ascent="960"
    descent="-64"
    bbox="-2.10345 -64.2787 1575 961.465"
    underline-thickness="0"
    underline-position="0"
    unicode-range="U+0001-FFFD"
  />
<missing-glyph 
 />
    <glyph glyph-name=".notdef" unicode="&#xfffd;" 
 />
    <glyph glyph-name="glyph1" horiz-adv-x="0" 
d="M0 0v0v0v0z" />
    <glyph glyph-name="glyph1" horiz-adv-x="0" 
d="M0 0v0v0v0z" />
    <glyph glyph-name="uni0001" horiz-adv-x="0" 
d="M0 0v0v0v0z" />
    <glyph glyph-name="space" unicode=" " horiz-adv-x="512" 
d="M0 0v0v0v0z" />
    <glyph glyph-name="uniE600" unicode="&#xe600;" horiz-adv-x="1154" 
d="M1154 959l-602 -1023l-552 1024z" />
    <glyph glyph-name="uniE601" unicode="&#xe601;" horiz-adv-x="1027" 
d="M1011 717h-967l484 -538z" />
    <glyph glyph-name="uniE602" unicode="&#xe602;" 
d="M1024 448q0 -106 -40 -199.5t-109.5 -163t-163 -109.5t-199.5 -40t-199.5 40t-163 109.5t-109.5 163t-40 199.5t40 199.5t109.5 163t163 109.5t199.5 40t199.5 -40t163 -109.5t109.5 -163t40 -199.5v0z" />
    <glyph glyph-name="uniE603" unicode="&#xe603;" 
d="M1024 447l-516 -511l-88 87l429 425l-429 425l88 87l516 -511l-1 -1l1 -1v0zM603 448l1 -1l-516 -511l-88 87l429 425l-429 425l88 87l516 -511l-1 -1v0z" />
    <glyph glyph-name="uniE604" unicode="&#xe604;" horiz-adv-x="1575" 
d="M1404 -64h-1232q-71 0 -121.5 49t-50.5 118v691q0 68 50.5 117t121.5 49h1232q71 0 121 -49t50 -117v-691q0 -69 -50 -118t-121 -49v0zM1491 794q0 35 -25.5 59.5t-61.5 24.5h-1232q-36 0 -62 -24.5t-26 -59.5v-691q0 -36 26 -60.5t62 -24.5h1232q36 0 61.5 24.5
t25.5 60.5v691v0zM1339 448h-260q-13 0 -22.5 9t-9.5 22v252q0 13 9.5 22t22.5 9h260q13 0 22.5 -9t9.5 -22v-252q0 -13 -9.5 -22t-22.5 -9v0zM1306 699h-194v-188h194v188v0zM658 134h-389q-13 0 -22.5 9t-9.5 22t9.5 22.5t22.5 9.5h389q13 0 22.5 -9.5t9.5 -22.5t-9.5 -22
t-22.5 -9v0zM528 260h-259q-13 0 -22.5 9t-9.5 22t9.5 22t22.5 9h259q14 0 23.5 -9t9.5 -22t-9.5 -22t-23.5 -9v0z" />
    <glyph glyph-name="uniE605" unicode="&#xe605;" horiz-adv-x="1022" 
d="M998 -40q-24 -24 -59 -23.5t-61 25.5l-97 98q17 12 33 25t31 28q16 15 29 31.5t25 33.5l97 -98q25 -25 25.5 -60t-23.5 -60v0zM142 166q-69 70 -104.5 157t-37 176.5t31 175.5t100.5 153q67 68 152.5 100.5t175 31t176.5 -37t156 -105.5q70 -69 105.5 -156t37 -177
t-31 -175.5t-100.5 -153.5q-67 -67 -152.5 -100t-175.5 -31.5t-176.5 37.5t-156.5 105v0zM733 758q-56 57 -127 86.5t-144.5 30.5t-143.5 -26t-125 -82t-82 -125t-26 -143.5t30.5 -145t85.5 -128.5q57 -57 128 -86t144.5 -30.5t143.5 25.5t125 82t82 125.5t26 144
t-30.5 144.5t-86.5 128v0z" />
    <glyph glyph-name="uniE606" unicode="&#xe606;" horiz-adv-x="1297" 
d="M1058 26q-63 0 -108 42.5t-45 102.5t45 102.5t108 42.5q64 0 109 -42.5t45 -102.5t-45 -102.5t-109 -42.5v0zM1058 271q-44 0 -75 -29.5t-31 -70.5q0 -42 31 -71.5t75 -29.5t75 29.5t31 71.5q0 41 -31 70.5t-75 29.5v0zM920 461q-2 5 -8.5 8.5t-12.5 3.5h-48q-7 0 -12 5
t-5 12q0 6 5 11t12 5h48q17 0 30.5 -8t20.5 -21l74 -140l-34 -12l-70 136v0zM824 516l-107 -1q-7 0 -15 4t-14 13l-42 62l-78 -113l107 -53q28 -12 29.5 -29.5l1.5 -17.5v-191q0 -17 -12 -28.5t-29 -11.5t-29 11.5t-12 28.5v153l-157 48q10 5 17 31t8 37l23 165l47 68
q8 9 20 14.5t26 5.5q13 0 24 -5t19 -13l86 -125h87q32 0 32 -26.5t-32 -26.5v0zM762 771q0 -29 -21 -48.5t-51 -19.5q-18 0 -33.5 7.5t-24.5 21.5l-2.5 2.5t-4.5 8.5h-43q-2 6 -3 12.5t-1 13.5q0 42 31.5 71.5t76.5 29.5q37 0 65.5 -21.5t37.5 -53.5h-28q3 -6 2 -12t-1 -12
v0zM420 426h-296q-17 0 -27.5 11t-8.5 28l40 282q3 17 16.5 28t30.5 11h296q17 0 27.5 -11t8.5 -28l-40 -282q-2 -17 -16 -28t-31 -11v0zM331 401q12 1 27.5 0.5t35.5 -8.5l191 -73l5 -37l-218 83q-11 4 -25 5.5t-25 0.5q-16 -2 -26 -6t-23 -12h-2h-2q-3 -1 -6.5 1.5
t-3.5 5.5q0 2 0.5 3.5t1.5 3.5q14 15 30.5 22.5t39.5 10.5v0zM424 316q64 0 109 -42.5t45 -102.5t-45 -102.5t-109 -42.5q-63 0 -108 42.5t-45 102.5t45 102.5t108 42.5v0zM424 70q44 0 75 29.5t31 71.5q0 41 -31 70.5t-75 29.5t-75 -29.5t-31 -70.5q0 -42 31 -71.5
t75 -29.5v0zM943 360l-157 -170q-8 -8 -19.5 -13.5t-24.5 -5.5v220l161 44l40 -75v0z" />
    <glyph glyph-name="uniE607" unicode="&#xe607;" 
d="M885 243q-27 111 -75.5 168.5t-117.5 60.5q-6 0 -11 6t-7 10q-7 14 -6.5 26t2.5 16q46 33 65.5 109.5t-1.5 145.5q-21 67 -74.5 105t-131.5 40h-1h-2h-5h-2h-2q-78 -2 -131.5 -40t-73.5 -105q-22 -69 -2.5 -145.5t66.5 -109.5q2 -4 2 -16t-6 -26l-7.5 -10t-11.5 -6
q-69 -3 -117 -60.5t-75 -168.5q-17 -71 -22 -129t-5 -61q-1 -13 3.5 -24.5t13.5 -21.5q9 -9 20.5 -13.5t24.5 -4.5h655q13 0 24.5 4.5t19.5 13.5q9 10 13.5 21.5t4.5 24.5q-1 3 -5.5 61t-21.5 129v0zM719 50l-7 50q-2 8 -8 12.5t-14 3.5q-7 -2 -11.5 -8t-3.5 -14l7 -44h-321
l6 43q1 8 -3.5 14t-11.5 7q-8 1 -14 -3.5t-7 -11.5l-7 -49h-129l4 55.5t20.5 122.5t48 123.5t86.5 58.5q62 2 80 72t-23 98q-25 17 -40 64t-7.5 96.5t44 88.5t115.5 40h-1.5h-1.5h5h-1.5h-0.5q78 -1 114 -40t43.5 -88.5t-7.5 -96.5t-39 -64q-42 -28 -23.5 -98t79.5 -72
q55 -2 87 -58.5t48 -123.5t20.5 -122.5l4.5 -55.5h-131v0z" />
    <glyph glyph-name="uniE608" unicode="&#xe608;" horiz-adv-x="949" 
d="M646 -63v0q-21 0 -39.5 11t-27.5 30l-165 298q-2 5 -5 7t-7 2l-336 48q-25 4 -43.5 22t-23.5 44q-4 25 6.5 49t33.5 35l796 468q25 15 54.5 8.5t45.5 -30.5q12 -14 14.5 -33t-1.5 -36l-229 -860q-5 -29 -25.5 -46t-47.5 -17v0zM874 898q-2 0 -4 -0.5t-5 -2.5l-796 -468
q-6 -5 -7.5 -11t-1.5 -8t3 -7.5t13 -8.5l332 -47q18 -2 33.5 -13t24.5 -28l164 -298q3 -7 8 -8.5t8 -1.5v0q2 0 9 2t9 11l229 861q2 4 0.5 8.5t-3.5 6.5q-5 7 -8 10t-8 3v0z" />
    <glyph glyph-name="uniE609" unicode="&#xe609;" horiz-adv-x="1434" 
d="M1432 844q-1 48 -36.5 82t-85.5 34h-1188q-51 0 -86.5 -35t-35.5 -84v-786q0 -49 35.5 -84t86.5 -35h1190q50 0 86 35t36 84v789h-2v0zM1378 827l-660 -347l-661 347v19q0 12 3.5 22.5t11.5 18.5q9 9 22 14t28 5h1190q29 0 47.5 -17t18.5 -43v-19v0zM55 765l648 -340
q3 -1 6.5 -2t6.5 -1t6.5 1t6.5 2l648 340v-713q0 -26 -19 -43t-48 -17h-1188q-29 0 -48 17t-19 43v713v0z" />
    <glyph glyph-name="uniE60A" unicode="&#xe60a;" horiz-adv-x="1371" 
d="M685 -19l-22 23q-2 2 -32 37t-66 96q-17 28 -34.5 63.5t-31.5 76.5t-23 87t-9 95t9 95t23 87t31.5 76.5t34.5 63.5q36 60 66 95.5t32 36.5l22 23l23 -23q1 -1 31.5 -36.5t66.5 -95.5q16 -28 33.5 -63.5t32 -76.5t23.5 -87t9 -95t-9 -95t-23.5 -87t-32 -76.5t-33.5 -63.5
q-36 -61 -66.5 -96t-31.5 -37l-23 -23v0zM685 844q-18 -22 -44.5 -60.5t-51 -89t-42 -110.5t-17.5 -125q0 -66 17.5 -126t42 -110.5t51 -88.5t44.5 -60q18 22 45 60.5t51.5 88.5t42 110t17.5 126q0 65 -17.5 125.5t-42 110.5t-51.5 88.5t-45 60.5v0zM808 -48
q-11 0 -19.5 7.5t-10.5 18.5q-2 13 5 23.5t20 12.5q1 1 43 11t102 35.5t126 69.5t115 111q39 53 60.5 112t31 114t10.5 102t0 75q-23 -6 -56 -17t-71.5 -28.5t-80 -42t-78.5 -58.5q-10 -8 -23 -7.5t-21 10.5q-9 10 -8 22.5t10 21.5q56 50 116.5 82t111.5 51t85 27t37 8l32 6
l5 -32q0 -2 3.5 -48.5t-2.5 -116.5q-3 -32 -10 -71t-20 -80.5t-32.5 -84t-48.5 -82.5q-29 -39 -63.5 -71t-70 -56.5t-70.5 -43t-65 -31.5q-65 -27 -110 -38t-47 -11t-3 -0.5t-3 -0.5v0zM562 -48q-1 0 -2.5 0.5t-2.5 0.5q-2 0 -47.5 11t-109.5 38q-30 13 -65 31.5t-71 43
t-70 56.5t-63 71q-29 40 -49 82.5t-32.5 84t-19.5 80.5t-10 71q-6 70 -2.5 116.5t3.5 48.5l4 32l32 -6q3 0 37.5 -8t85.5 -27t111.5 -51t115.5 -82q10 -9 11 -21.5t-8 -22.5t-21.5 -10.5t-22.5 7.5q-38 34 -79 58.5t-79.5 42t-72 28.5t-55.5 17q-1 -28 0 -75t10.5 -102
t31 -114t59.5 -112q50 -68 116 -111.5t126 -69t102 -35.5t43 -11q12 -2 19.5 -12.5t5.5 -23.5q-2 -11 -11 -18.5t-20 -7.5v0z" />
    <glyph glyph-name="uniE60B" unicode="&#xe60b;" horiz-adv-x="822" 
d="M818 579q-2 1 -3 2l-2 2q0 4 0.5 8t0.5 8q0 27 -15 49.5t-40 32.5q-3 22 -16 39.5t-32 26.5q-7 31 -31 51t-57 20h-1h-2q-3 24 -18 43t-37 27q-6 31 -30 51.5t-57 20.5q-21 0 -40 -9.5t-32 -26.5q-22 0 -41.5 -10t-32.5 -28q-4 0 -8.5 1t-9.5 1q-20 0 -38.5 -9t-30.5 -25
q-4 0 -7.5 0.5t-6.5 0.5q-34 0 -59 -22.5t-29 -55.5q-27 -4 -47 -23.5t-25 -45.5q-31 -7 -51 -31t-20 -57q0 -10 2.5 -20.5t7.5 -20.5v0q-3 -4 -4 -8t0 -8l122 -611v0v-1q1 0 1 -1v-1q0 -1 0.5 -1t0.5 -1v-0.5t1 -1.5v0l1 -1l0.5 -0.5l0.5 -0.5q0 -1 0.5 -1h0.5q1 -1 1.5 -1
t0.5 -1h0.5h0.5l1 -1l1 -1h0.5h0.5q1 -1 1.5 -1h1.5v-0.5t1 -0.5h1.5h1.5v0h529q7 0 12.5 4.5t6.5 11.5l126 610q1 5 0 9t-3 8v0zM687 473l73 73h8l-4 -19l-77 -77v23v0zM687 394l63 63l-6 -29l-57 -57v23v0zM687 315l42 43l-6 -29l-36 -37v23v0zM687 237l22 22l-6 -29
l-16 -17v24v0zM687 158l2 2l-2 -11v9v0zM687 529v18h18l-18 -18v0zM89 670q9 0 14.5 5.5t5.5 13.5q0 21 14.5 35.5t34.5 14.5h1.5h1.5q4 -1 8 0.5t7 5.5q3 3 4.5 7t1.5 8v3.5v2.5q0 20 14 34.5t35 14.5q4 0 8 -0.5t8 -2.5q7 -2 13.5 0.5t10.5 9.5q6 12 18 19t26 7q5 0 10 -1
t9 -3q3 -2 7 -2t8 1q3 2 6 5t5 6q6 14 18 22t27 8h4t4 -1q6 -1 12 2t9 8q6 13 18 20t26 7q20 0 34 -13.5t15 -34.5q0 -7 4.5 -12t11.5 -6q16 -4 27.5 -17.5t11.5 -31.5q0 -2 -0.5 -4t-0.5 -4q-1 -5 0.5 -10t6.5 -8q3 -3 8.5 -4t10.5 0q4 2 8 2.5t8 0.5q19 0 33.5 -13.5
t15.5 -32.5q1 -7 4.5 -11.5t9.5 -6.5q15 -5 24.5 -18t9.5 -29v-0.5v-0.5q0 -7 4 -12.5t11 -7.5q17 -3 28 -17t11 -31q0 -3 -0.5 -6.5t-0.5 -6.5h-721q0 2 -1 3t-1 3q-5 6 -7.5 13.5t-2.5 15.5q0 21 14.5 35.5t34.5 14.5v0zM517 202l-90 -91v24l90 90v-23v0zM517 281l-90 -91
v23l90 91v-23v0zM517 359l-90 -90v23l90 91v-24v0zM517 438l-90 -90v23l90 90v-23v0zM517 517l-90 -91v24l90 90v-23v0zM427 505v23l18 19h24l-42 -42v0zM427 55l90 91v-23l-90 -91v23v0zM517 -25h-13l13 13v-13v0zM189 -25l69 69v-23l-46 -46h-23v0zM258 99l-91 -90v23
l91 90v-23v0zM258 178l-91 -90v23l91 91v-24v0zM258 257l-91 -91v24l91 90v-23v0zM258 336l-91 -91v23l91 91v-23v0zM258 415l-91 -91v23l91 91v-23v0zM258 493l-91 -90v23l91 91v-24v0zM167 482v23l42 42h23l-65 -65v0zM128 197l-8 36v1l-65 312h73v-349v0zM297 90v1.5v1.5
v453h90v-571h-90v115v0zM427 -23l90 90v-23l-68 -69h-22v2v0zM557 546h90v-571h-90v571v0zM215 687v4v4q1 2 1 4.5t1 4.5q1 4 3 8.5t4 8.5q3 4 6.5 8t8.5 8q2 1 4 2.5t5 3.5q1 0 2 0.5l3 1.5l2 1l1 1h1h1h1l4 2h0.5h1.5h3q3 1 6 1h6q5 0 10 -1t10 -3t9 -4.5t8 -5.5l2.5 -2.5
l3.5 -3.5q1 -1 2.5 -3t2.5 -3q0 -2 1 -3.5t2 -3.5q1 -1 1.5 -2.5t1.5 -2.5v-3t1 -3v-2v-3v-3.5v-2.5t-0.5 -1.5l-0.5 -0.5h-0.5t-0.5 1q-1 1 -2.5 2t-2.5 2l-1.5 1.5l-1.5 1.5q-1 0 -2 0.5t-2 1.5l-4 2t-5 3q-2 1 -4.5 1.5t-5.5 1.5q-3 0 -5.5 0.5t-5.5 0.5q-2 1 -5 0.5
t-5 -0.5h-1.5h-1.5t-1 -0.5t-1 -0.5h-1v0h-1v0l-4 -1v0h-1l-1 -1l-1 -0.5l-1 -0.5q-1 -1 -2.5 -1.5t-2.5 -0.5q-2 -2 -4.5 -3.5t-4.5 -2.5l-4 -4t-3 -4q-2 -2 -3.5 -4t-2.5 -4q-2 -3 -3 -5t-2 -5q0 -1 -0.5 -2t-0.5 -2q-1 -1 -1 -2v-1q-1 -2 -1.5 -3.5t-0.5 -2.5v-2.5v-0.5
l-0.5 0.5l-1.5 1.5l-0.5 0.5l-1.5 1.5q-1 0 -1.5 1t-0.5 2l-1.5 1.5t-1.5 2.5q0 1 -1 2t-1 3q-1 1 -1 2.5t-1 3.5t-1 3.5t-1 3.5v0zM387 801q0 1 -0.5 2t0.5 2v2v3q0 1 0.5 2.5t0.5 2.5q1 2 1.5 3.5t1.5 2.5q0 2 1 3.5t2 2.5q1 2 2.5 3.5t2.5 3.5l2.5 2.5l3.5 3.5q4 2 8 4.5
t9 4.5q4 2 9.5 3t10.5 2q6 0 11.5 -1t10.5 -2l1 -1h1h1l2 -1l0.5 -0.5t1.5 -0.5l2 -1q3 -2 5.5 -3.5t4.5 -2.5l8 -8t6 -8q3 -4 5 -8.5t3 -8.5q0 -2 0.5 -4.5t0.5 -4.5t0.5 -4t-0.5 -4v-3t-1 -4q0 -1 -0.5 -2.5t-1.5 -3.5q0 -1 -1 -2.5t-1 -2.5q-1 -1 -1.5 -2t-0.5 -2l-3 -3
t-1 -2l-1.5 -1.5l-0.5 -0.5v1v2q-1 1 -1 2.5t-1 3.5q0 1 -0.5 1.5t-0.5 2.5l-0.5 1.5t-1.5 2.5q-1 2 -2 4.5t-2 4.5q-2 2 -3.5 4t-2.5 4l-4 4l-4 4q-2 1 -4 2.5t-5 3.5l-0.5 0.5t-1.5 0.5h-0.5t-1.5 1h-1v0v0l-1 1l-2 1h-1v0q-3 1 -5.5 1.5t-4.5 0.5q-3 1 -5.5 1h-5.5
q-2 -1 -5 -1t-5 -1q-3 0 -5.5 -1t-5.5 -2q-2 -1 -4.5 -2t-3.5 -3q-1 0 -2 -0.5t-2 -1.5t-2 -1.5l-1 -0.5q-2 -1 -3 -2.5t-2 -1.5l-1.5 -1.5l-0.5 -0.5v0.5v1.5q-1 0 -1 0.5v1.5v0zM504 697q1 1 2 2.5t2 3.5q1 1 2.5 3t2.5 3q1 2 2.5 3.5t3.5 2.5q4 3 8 5.5t9 4.5q4 2 9.5 3
t10.5 1q5 1 10.5 0t11.5 -3h1h1v-1l2 -1h1.5h0.5l3 -2q3 -1 5.5 -2.5t4.5 -3.5q4 -3 8 -7t6 -8q3 -5 5 -9t3 -8q0 -3 0.5 -5t0.5 -4t0.5 -4t-0.5 -4v-3.5t-1 -3.5t-1 -3.5t-1 -2.5q0 -2 -1 -3t-1 -3q-1 -1 -1.5 -2t-1.5 -1q-1 -2 -2 -3.5t-2 -2.5l-0.5 -0.5l-0.5 -0.5
l-0.5 0.5t-0.5 1.5t-0.5 2.5t-0.5 3.5q0 1 -0.5 2t-0.5 2q-1 1 -1.5 2t-0.5 2q-1 2 -2 4.5t-2 4.5q-2 2 -3.5 4.5t-3.5 4.5q-1 2 -3 3.5t-4 3.5t-4.5 3.5t-4.5 2.5l-0.5 0.5t-1.5 0.5l-1 1h-1l-1 1v0h-1v0l-2 1h-1h-1q-2 1 -4.5 2t-4.5 1q-3 0 -5.5 0.5t-5.5 -0.5
q-3 0 -5.5 -0.5t-5.5 -0.5q-2 -1 -4.5 -2t-5.5 -1q-2 -2 -4.5 -3t-4.5 -2q0 -1 -1 -1.5t-2 -1.5q-1 0 -2 -0.5t-2 -1.5l-2 -2l-2 -2q-1 0 -1.5 -0.5l-0.5 -0.5v0.5v1.5v1.5t-1 1.5v1.5v1.5t0.5 2.5t0.5 2.5t0.5 2.5t0.5 2.5t0.5 2.5t0.5 3.5v0z" />
    <glyph glyph-name="uniE60C" unicode="&#xe60c;" horiz-adv-x="1340" 
d="M1332 772q-2 6 -6.5 11.5t-10.5 8.5l-316 158q-3 1 -6.5 2t-7.5 1h-173q-13 0 -22.5 -9.5t-9.5 -22.5q0 -45 -32.5 -77.5t-77.5 -32.5q-46 0 -78.5 32.5t-32.5 77.5q0 13 -9 22.5t-22 9.5h-174q-4 0 -7.5 -1t-6.5 -2l-316 -158q-6 -3 -10 -8.5t-6 -11.5q-2 -7 -0.5 -13.5
t4.5 -12.5l158 -237q6 -8 15.5 -11.5t19.5 -0.5l118 35v-557q0 -13 9 -22.5t22 -9.5h631q13 0 22.5 9.5t9.5 22.5v557l117 -35q3 -1 5 -1.5t4 -0.5q8 0 15 4t11 10l158 237q4 6 5 12.5t0 13.5v0zM1130 564l-113 34v39q0 13 -9.5 22.5t-22.5 9.5t-22 -9.5t-9 -22.5v-631h-568
v631q0 13 -9.5 22.5t-22.5 9.5t-22 -9.5t-9 -22.5v-39l-113 -34l-125 187l277 139h137q11 -61 59 -101.5t112 -40.5q63 0 111 40.5t60 101.5h137l277 -139l-125 -187v0z" />
    <glyph glyph-name="uniE60D" unicode="&#xe60d;" horiz-adv-x="1248" 
d="M1136 960h-1008q-53 0 -90.5 -37.5t-37.5 -90.5v-656q0 -53 37.5 -90.5t90.5 -37.5v-80q0 -13 9.5 -22.5t22.5 -9.5h112q13 0 22.5 9.5t9.5 22.5v80h640v-80q0 -13 9.5 -22.5t22.5 -9.5h112q13 0 22.5 9.5t9.5 22.5v80q53 0 90.5 37.5t37.5 90.5v656q0 57 -31 92.5
t-81 35.5v0zM240 0h-48v32h48v-32v0zM1056 0h-48v32h48v-32v0zM1184 176q0 -26 -19 -45t-45 -19h-992q-26 0 -45 19t-19 45v656q0 26 19 45t45 19h1008q32 0 40 -25t8 -39v-656v0zM688 816h-448q-40 0 -68 -28t-28 -68v-448q0 -40 28 -68t68 -28h448q40 0 68 28t28 68v448
q0 40 -28 68t-68 28v0zM720 272q0 -13 -9.5 -22.5t-22.5 -9.5h-448q-13 0 -22.5 9.5t-9.5 22.5v448q0 13 9.5 22.5t22.5 9.5h448q13 0 22.5 -9.5t9.5 -22.5v-448v0zM1046 494q0 -27 -19.5 -46.5t-46.5 -19.5q-28 0 -47 19.5t-19 46.5t19 46.5t47 19.5q27 0 46.5 -19.5
t19.5 -46.5v0zM1046 302q0 -27 -19.5 -46.5t-46.5 -19.5q-28 0 -47 19.5t-19 46.5t19 46.5t47 19.5q27 0 46.5 -19.5t19.5 -46.5v0zM1036 720h-113q-20 0 -34.5 -14.5t-14.5 -34.5t14.5 -34.5t34.5 -14.5h113q21 0 35.5 14.5t14.5 34.5t-14.5 34.5t-35.5 14.5v0z" />
    <glyph glyph-name="uniE60E" unicode="&#xe60e;" horiz-adv-x="793" 
d="M342 899q12 0 21 -9t9 -21v-310q0 -13 -9 -22t-21 -9h-40q-12 0 -21 -8.5t-9 -21.5v-468q0 -13 -9 -22t-22 -9h-54q-13 0 -21.5 9t-8.5 22v468q0 13 -9 21.5t-22 8.5h-35q-12 0 -21 9t-9 22v310q0 12 9 21t21 9h1q13 0 22 -9t9 -21v-196q0 -13 9 -22t21 -9h1q13 0 22 9
t9 22v196q0 12 9 21t21 9h8q13 0 21.5 -9t8.5 -21l1 -196q0 -13 8.5 -22t20.5 -9t20.5 9t8.5 22v196q0 12 8.5 21t21.5 9v0zM342 960q-17 0 -32.5 -6t-27.5 -16q-12 10 -27 16t-32 6h-8q-17 0 -33 -6.5t-28 -17.5q-12 11 -28 17.5t-34 6.5h-1q-37 0 -64 -27t-27 -64v-310
q0 -38 27 -64.5t64 -26.5h5v-438q0 -38 26.5 -65t64.5 -27h54q38 0 65 27t27 65v438h9q37 0 64 26.5t27 64.5v310q0 37 -27 64t-64 27v0v0zM698 898h2h1q13 -1 22 -10t9 -22v-838q0 -13 -9 -22t-22 -9h-53q-13 0 -21.5 9t-8.5 21v294q0 13 -9 22t-22 10l-25.5 9t-25.5 57
v53.5v90v105v100.5q0 93 72 111.5t90 18.5v0zM698 959v0q-42 0 -82 -11.5t-71 -35t-50.5 -59.5t-19.5 -85v-349q0 -54 26 -83t56 -39v-270q0 -37 26.5 -64t64.5 -27h53q38 0 65 27t27 64v839q0 37 -26.5 64t-62.5 29h-2h-4v0v0z" />
    <glyph glyph-name="uniE60F" unicode="&#xe60f;" horiz-adv-x="1184" 
d="M1019 -57h-855q-65 0 -111 46t-46 111v536q0 65 46 111.5t111 46.5h855q66 0 112 -46.5t46 -111.5v-536q0 -65 -46 -111t-112 -46v0zM164 728q-38 0 -65 -27t-27 -65v-536q0 -38 27 -65t65 -27h855q39 0 66 27t27 65v536q0 38 -27 65t-66 27h-855v0zM844 728h-504v79
q0 60 46.5 103t111.5 43h188q65 0 111.5 -43t46.5 -103v-79v0zM405 793h373v14q0 33 -27 57t-65 24h-188q-38 0 -65.5 -24t-27.5 -57v-14v0zM675 719v-487h-23l-57 57l-57 -57h-29v487h166v0zM714 759h-244v-566h84l12 11l29 29l29 -29l11 -11h79v566v0z" />
    <glyph glyph-name="uniE610" unicode="&#xe610;" horiz-adv-x="683" 
d="M341 960q-70 0 -132.5 -27t-108.5 -74.5t-73 -110.5t-27 -135v-6v-6q1 -28 6 -54t14 -50q27 -92 80.5 -191t107 -181t93.5 -135.5l40 -53.5l40 53.5t93.5 135.5t107 181t81.5 190q8 25 13 51t6 54q0 3 0.5 6t0.5 6q0 72 -27 135t-73.5 110.5t-108.5 74.5t-133 27v0z
M341 443q-69 0 -118 50t-49 120q0 71 49 120.5t118 49.5q70 0 119 -49.5t49 -120.5q0 -70 -49 -120t-119 -50v0z" />
    <glyph glyph-name="uniE611" unicode="&#xe611;" 
d="M907 746l-392 -389l-392 389l-105 -104l496 -492h1h1l496 492l-105 104v0z" />
    <glyph glyph-name="uniE612" unicode="&#xe612;" horiz-adv-x="1174" 
d="M857 -64q-45 0 -77 32t-32 77t32 77t77 32t77 -32t32 -77t-32 -77t-77 -32v0zM857 110q-27 0 -46 -19t-19 -46t19 -46t46 -19t46.5 19t19.5 46t-19.5 46t-46.5 19v0zM421 -64q-45 0 -77 32t-32 77t32 77t77 32q46 0 77.5 -32t31.5 -77t-31.5 -77t-77.5 -32v0zM421 110
q-27 0 -46 -19t-19 -46t19 -46t46 -19t46.5 19t19.5 46t-19.5 46t-46.5 19v0zM894 197h-510q-39 0 -69 25t-37 64l-96 496q-1 4 0.5 9t4.5 9q3 3 7.5 5.5t9.5 2.5h905q16 0 30 -8t23 -21q10 -13 11.5 -29t-3.5 -31l-174 -452q-12 -31 -40 -50.5t-62 -19.5v0zM230 764
l90 -470q5 -23 23 -38t41 -15h510q20 0 37 11.5t24 30.5l174 451q2 5 1.5 10.5t-3.5 9.5q-3 5 -8 7.5t-10 2.5h-879v0zM203 764q-8 0 -14 5t-7 12l-17 83q-5 23 -23 37.5t-41 14.5h-79q-9 0 -15.5 6.5t-6.5 15.5t6.5 15.5t15.5 6.5h79q39 0 69 -25t38 -63l16 -82
q2 -9 -3 -16.5t-14 -9.5h-2h-2v0zM900 633h-33q-9 0 -15.5 6.5t-6.5 15.5t6.5 15.5t15.5 6.5h33q9 0 15 -6.5t6 -15.5t-6 -15.5t-15 -6.5v0zM769 633h-533q-9 0 -15.5 6.5t-6.5 15.5t6.5 15.5t15.5 6.5h533q9 0 15.5 -6.5t6.5 -15.5t-6.5 -15.5t-15.5 -6.5v0z" />
    <glyph glyph-name="uniE613" unicode="&#xe613;" horiz-adv-x="1022" 
d="M708 803q0 65 46.5 111t110.5 46q65 0 111 -46t46 -111t-46 -111t-111 -46q-64 0 -110.5 46t-46.5 111v0zM981 803q0 48 -34 82t-82 34t-82 -34t-34 -82t34 -82t82 -34t82 34t34 82v0zM708 93q0 65 46.5 111t110.5 46q65 0 111 -46t46 -111t-46 -111t-111 -46
q-64 0 -110.5 46t-46.5 111v0zM982 93q0 48 -34.5 82t-82.5 34t-82 -34t-34 -82t34 -82t82 -34t82.5 34t34.5 82v0zM0 449q0 65 46 111t111 46t111 -46t46 -111t-46 -111t-111 -46t-111 46t-46 111v0zM273 449q0 48 -34 82t-82 34t-82 -34t-34 -82t34 -82t82 -34t82 34
t34 82v0zM270 506l460 261l20 -36l-460 -260l-20 35v0zM270 390l20 36l460 -259l-20 -36l-460 259v0z" />
    <glyph glyph-name="uniE614" unicode="&#xe614;" 
d="M0 512h1024v-128h-1024v128v0z" />
    <glyph glyph-name="uniE615" unicode="&#xe615;" 
d="M0 512h1024v-128h-1024v128v0zM448 960h128v-1024h-128v1024v0z" />
    <glyph glyph-name="uniE616" unicode="&#xe616;" horiz-adv-x="831" 
d="M590 818q-16 -4 -31 -8.5t-31 -9.5v10v8q-1 15 -7 20.5t-20 5.5h-111h-110h-93.5h-93.5q-16 0 -21.5 -5.5t-5.5 -21.5v-163v-163.5v-163v-163.5q0 -17 5.5 -22.5t22.5 -5.5h101.5h101h101h101.5q17 0 23 6t6 23v74.5t-1 74.5q0 7 2.5 11t9.5 6q12 4 24.5 9t26.5 11v-9v-8
v-148v-148q0 -41 -24 -65.5t-66 -24.5h-102h-101.5h-101.5h-102q-42 0 -66 24t-24 66v205v204.5v205v205.5q0 42 24 66t66 24h102h102h101.5h101.5q42 0 66 -24.5t24 -66.5v-18.5v-20.5v0zM298 83h-21t-21 -1q-17 0 -25 -9.5t-8 -28.5q0 -17 8.5 -26t24.5 -10h40.5h40.5
q16 1 24 10t8 26q1 19 -7 28.5t-24 9.5q-10 1 -20 1h-20v0zM777 541q-33 2 -64.5 -5t-62.5 -20l-98 -38t-99 -36q-27 -9 -55.5 -11.5t-57.5 3.5q-17 4 -29.5 14t-19.5 26q-19 44 -37 87.5t-37 87.5q-1 2 -1.5 4t-0.5 4q-4 13 0 17.5t17 5.5q26 1 52 1.5t52 4.5q19 3 37 10.5
t36 14.5q49 17 98 35t99 34q23 8 48 7.5t49 -4.5q18 -4 30.5 -14t19.5 -26q18 -44 36.5 -87.5t36.5 -87.5q1 -3 2 -5.5t1 -5.5q3 -11 -0.5 -15t-14.5 -4q-10 1 -19 1.5t-18 1.5v0zM525 700q-40 0 -68 -27.5t-28 -67.5q0 -38 27.5 -65.5t65.5 -28.5q40 0 67.5 27t28.5 66
q0 40 -27 67.5t-66 28.5v0zM776 434q-38 4 -71.5 -3.5t-65.5 -20.5q-44 -17 -87 -34.5t-87 -33.5q-29 -12 -59 -14.5t-61 3.5q-19 4 -33.5 14.5t-22.5 28.5q-19 46 -38.5 92t-38.5 92q-2 5 -5 11.5t6 9.5q3 1 9.5 -3.5t8.5 -8.5q8 -15 14 -30t13 -30q8 -20 17 -40t17 -40
q9 -22 26 -32t40 -10q41 0 80 8t76 23q27 11 53.5 22t52.5 22q39 16 79.5 23.5t82.5 7.5q23 1 35.5 -10.5t14.5 -34.5q1 -7 -2.5 -9.5t-9.5 -2.5h-23.5h-20.5v0zM556 556l8 -16l-17 -8l-8 17q-11 -4 -22.5 -4.5t-22.5 1.5l4 25q9 -2 17 -2.5t15 1.5l-12 26q-19 -4 -31.5 0
t-19.5 18q-6 13 -0.5 26t19.5 22l-4 9l17 8l4 -10q10 3 19 3.5t17 -0.5l-2 -25q-6 1 -12.5 1.5t-11.5 -0.5l11 -25q21 4 33 -0.5t19 -18.5q6 -13 0.5 -26t-20.5 -22v0zM497 642q-6 -4 -7.5 -8t0.5 -8q2 -3 5.5 -5t11.5 -1l-10 22v0zM535 599l11 -23q5 4 7 8t0 8t-6 5.5
t-12 1.5v0z" />
    <glyph glyph-name="uniE617" unicode="&#xe617;" horiz-adv-x="1134" 
d="M590 943q-2 8 -8.5 12.5t-15.5 4.5q-8 0 -14.5 -4.5t-9.5 -12.5l-113 -339q-3 -7 -9.5 -12t-14.5 -5h-380q-8 0 -14.5 -4.5t-9.5 -11.5t0 -14.5t9 -11.5l310 -206q6 -4 9 -11.5t0 -14.5l-120 -345q-3 -7 0 -14.5t9 -11.5q7 -4 15.5 -4t14.5 4l303 212q7 4 15.5 4t15.5 -4
l303 -211q7 -5 15 -5t15 4q7 5 9.5 12t0.5 15l-118 343q-2 7 0.5 14.5t8.5 11.5l307 207q7 4 9.5 11.5t0.5 14.5q-3 7 -9.5 11.5t-14.5 4.5h-382q-9 0 -15.5 5t-9.5 12l-112 339v0z" />
    <glyph glyph-name="uniE618" unicode="&#xe618;" 
d="M512 -32q-99 0 -186.5 37.5t-153 103t-103 153t-37.5 186.5t37.5 186.5t103 153t153 103t186.5 37.5t186.5 -37.5t153 -103t103 -153t37.5 -186.5t-37.5 -186.5t-103 -153t-153 -103t-186.5 -37.5v0zM512 859q-85 0 -160 -32t-131 -88t-88 -131t-32 -160t32 -160t88 -131
t131 -88t160 -32t160 32t131 88t88 131t32 160t-32 160t-88 131t-131 88t-160 32v0zM672 220l-194 194v0v308h68v-280l174 -174l-48 -48v0z" />
    <glyph glyph-name="uniE619" unicode="&#xe619;" 
d="M912 679q-36 -13 -74.5 -5.5t-67.5 36.5t-36.5 67.5t5.5 74.5l-109 108l-630 -630l104 -105q38 19 81 12.5t74 -37.5q32 -32 38.5 -75t-12.5 -80l109 -109l630 630l-112 113v0zM451 86l-301 301l432 432l301 -301l-432 -432v0zM445 178l-210 209l346 346l209 -210z" />
    <glyph glyph-name="uniE61A" unicode="&#xe61a;" 
d="M728 53q-9 0 -17.5 3t-15.5 8q-3 2 -50.5 36.5t-105.5 76.5l-27 20l-182 -133q-8 -5 -16.5 -8t-17.5 -3q-25 0 -42 17.5t-17 41.5q0 5 0.5 10t2.5 10l1 1q1 4 22.5 70.5t46.5 141.5q-53 39 -116 85t-66 48q-12 8 -19 21t-7 27q0 25 17.5 42.5t41.5 17.5h226l69 213
q5 18 20.5 30t35.5 12t35.5 -12t21.5 -31l68 -212h226q24 0 41.5 -17.5t17.5 -41.5q0 -15 -7 -28t-19 -21q-3 -2 -66 -48t-116 -85q20 -62 44 -135t26 -77q1 -6 2 -11t1 -10q0 -24 -17 -41.5t-42 -17.5v0zM161 530q-1 0 -2 -1t-1 -3l0.5 -1t1.5 -1q2 -1 33 -24t67.5 -49.5
t67 -49t31.5 -23.5l17 -12l-7 -19q-9 -28 -21.5 -66t-24 -73.5t-20 -62t-10.5 -31.5v-1.5v-0.5q0 -1 0.5 -2t2.5 -1l0.5 0.5l0.5 0.5l215 156l16 -12q25 -18 58.5 -42t64.5 -46.5t53 -38.5t23 -17l0.5 -0.5l0.5 -0.5q2 0 2.5 1t0.5 2v0.5v1.5t-10 31t-66 202l-7 19l17 12
q1 1 31.5 23.5t67 49t68 49.5t33.5 24l0.5 1t0.5 2t-1 2t-2 1h-266l-82 252q0 1 -1 2t-2 1t-1.5 -0.5l-1.5 -1.5l-81 -253h-267v0z" />
    <glyph glyph-name="uniE61B" unicode="&#xe61b;" 
d="M503 495q-72 19 -100 40t-28 51q0 35 30.5 57.5t85.5 22.5q57 0 80.5 -25t25.5 -65h95q-2 55 -36 100.5t-101 62.5v93h-128v-92q-62 -14 -106 -53t-44 -101q0 -74 56 -114.5t145 -61.5q80 -20 104 -46.5t24 -56.5q0 -22 -22 -49.5t-93 -27.5q-66 0 -95 26t-32 64h-95
q4 -70 50 -110t108 -53v-93h128v92q62 12 105.5 49t43.5 102q0 91 -64 130t-137 58v0z" />
    <glyph glyph-name="uniE61C" unicode="&#xe61c;" horiz-adv-x="626" 
d="M590 -27v814l-554 173v-987h-36v-37h626v37h-36v0zM496 48h-366v92h366v-92v0zM496 300h-366v92h366v-92v0zM496 464h-366v92h366v-92v0zM496 628h-366v92h366v-92v0z" />
    <glyph glyph-name="uniE61D" unicode="&#xe61d;" horiz-adv-x="640" 
d="M320 960q-66 0 -124.5 -29.5t-102 -80.5t-68.5 -119t-25 -146q0 -77 50 -188.5t110 -213.5t110 -174.5l50 -72.5l50 72.5t110 174.5t110 213.5t50 188.5q0 78 -25 146t-68.5 119t-102 80.5t-124.5 29.5v0zM320 406q-63 0 -108 52.5t-45 126.5q0 75 45 127t108 52t108 -52
t45 -127q0 -74 -45 -126.5t-108 -52.5v0z" />
    <glyph glyph-name="uniE61E" unicode="&#xe61e;" horiz-adv-x="1035" 
d="M219 681h-76v93h76v-93v0zM219 401h-76v94h76v-94v0zM219 122h-76v93h76v-93v0zM904 681h-609v93h609v-93v0zM904 401h-609v94h609v-94v0zM904 122h-609v93h609v-93v0z" />
    <glyph glyph-name="uniE61F" unicode="&#xe61f;" horiz-adv-x="652" 
d="M252 569h-252l331 -633l321 633h-241v391h-159v-391v0z" />
    <glyph glyph-name="uniE620" unicode="&#xe620;" 
d="M771 553v127q0 57 -21.5 106.5t-58.5 86.5t-86.5 58.5t-106.5 21.5q-56 0 -106 -21.5t-87 -58.5t-58.5 -86.5t-21.5 -106.5v-127q-45 0 -77 -32t-32 -78v-363q0 -46 32 -78t77 -32h546q45 0 77 32t32 78v363q0 46 -31.5 78t-77.5 32v0zM262 680q0 49 18.5 92.5t50.5 75.5
t75 50.5t92 18.5t92 -18.5t75.5 -50.5t51 -75.5t18.5 -92.5v-127h-37v127q0 41 -15.5 78t-42.5 64t-63.5 42.5t-78.5 15.5q-41 0 -77.5 -15.5t-64 -42.5t-43 -63.5t-15.5 -78.5v-127h-36v127v0zM662 680v-127h-328v127q0 68 48 116t116 48t116 -48t48 -116v0zM844 407v-73
h-328v-36h328v-73h-328v-36h328v-73h-328v-36h328q0 -31 -21.5 -52t-51.5 -21h-546q-30 0 -51.5 21t-21.5 52v363q0 31 21.5 52t51.5 21h546q31 0 52 -21t21 -51h-328v-37h328v0z" />
    <glyph glyph-name="uniE621" unicode="&#xe621;" horiz-adv-x="1013" 
d="M48 870q-15 0 -26.5 -11t-11.5 -27v-768q0 -16 11.5 -27t26.5 -11q16 0 27.5 11t11.5 27v768q0 16 -11.5 27t-27.5 11v0zM964 486h-618l149 147q6 6 8.5 12.5t2.5 14.5q0 7 -2.5 14t-8.5 13q-5 5 -12 8t-15 3t-15 -3t-12 -8l-215 -212q-5 -6 -8 -12.5t-3 -14.5t3 -14.5
t8 -12.5l215 -212q5 -5 12 -8t15 -3t15 3t12 8q6 6 8.5 13t2.5 14q0 8 -2.5 15t-8.5 12l-149 147h618q16 0 27.5 11t11.5 27t-11.5 27t-27.5 11v0z" />
    <glyph glyph-name="uniE622" unicode="&#xe622;" 
d="M301 466h70v74h-70v-74v0zM477 466h70v74h-70v-74v0zM653 466h70v74h-70v-74v0zM301 356h70v74h-70v-74v0zM477 356h70v74h-70v-74v0zM653 356h70v74h-70v-74v0zM301 246h70v74h-70v-74v0zM477 246h70v74h-70v-74v0zM653 246h70v74h-70v-74v0zM828 797h-140v36
q0 15 -10.5 26t-24.5 11q-15 0 -25.5 -11t-10.5 -26v-36h-210v36q0 15 -10.5 26t-25.5 11q-14 0 -24.5 -11t-10.5 -26v-36h-140q-44 0 -75 -32.5t-31 -78.5v-550q0 -45 31 -77.5t75 -32.5h632q44 0 75 32.5t31 77.5v550q0 46 -31 78.5t-75 32.5v0zM864 136
q0 -15 -10.5 -25.5t-25.5 -10.5h-632q-15 0 -25.5 10.5t-10.5 25.5v550q0 16 10.5 26.5t25.5 10.5h140v-37q0 -15 10.5 -25.5t24.5 -10.5q15 0 25 10.5t10 25.5v37h211v-37q0 -15 10.5 -25.5t25.5 -10.5q14 0 24.5 10.5t10.5 25.5v37h140q15 0 25 -10.5t10 -26.5v-550h1z
" />
    <glyph glyph-name="uniE623" unicode="&#xe623;" 
d="M235 560l178 -191l365 501l156 -189l-526 -655l-318 372l145 162v0z" />
    <glyph glyph-name="uniE624" unicode="&#xe624;" 
d="M734 52l-222 222l-222 -222l-174 174l222 222l-222 222l174 174l222 -222l222 222l174 -174l-222 -222l222 -222l-174 -174v0z" />
    <glyph glyph-name="uniE625" unicode="&#xe625;" horiz-adv-x="1045" 
d="M881 705h-428q-9 0 -15.5 -6t-6.5 -16q0 -9 6.5 -15t15.5 -6h428q10 0 16.5 6t6.5 15q0 10 -6.5 16t-16.5 6v0zM1002 855l-0.5 0.5l-0.5 0.5q0 1 -0.5 2t-1.5 1q0 1 -0.5 1.5t-0.5 1.5v0l-5 5h-1v0v0l-1 1v0h-1v0h-0.5h-0.5q-2 1 -3.5 1.5t-3.5 0.5h-4q-1 0 -2 -0.5
t-2 -0.5v0v0h-0.5h-0.5h-1l-1.5 -1.5t-1.5 -0.5l-12 -7l-49 -27l-22 17l-21 15q-3 2 -7 3.5t-8 1.5h-2q-5 0 -9.5 -2t-7.5 -5q0 -1 -1 -1.5t-1 -1.5l-42 -27l-46 32q-3 2 -6.5 3t-6.5 1q-4 0 -7.5 -1t-6.5 -3l-47 -31l-35 26l-5 4q0 1 -0.5 1h-0.5v0v0l-1 1v0l-1 1h-1
q-3 1 -6.5 1.5t-6.5 0.5h-1h-0.5h-1.5v0v0h-1l-1 -1h-0.5h-0.5v0v0h-1.5t-0.5 -1v0h-1.5h-0.5v-1v0h-1l-4 -3l-42 -29l-37 30q-3 3 -7 4.5t-8 1.5q-1 0 -2.5 -0.5t-3.5 -0.5v0h-1q-2 -1 -3.5 -1.5t-2.5 -1.5l-32 -23l-12 -9l-40 30v1h-1q-3 2 -6.5 3.5t-7.5 1.5
q-5 0 -9.5 -2.5t-8.5 -6.5v0q-3 -4 -4 -9.5t0 -9.5v-1v-1q-2 -30 -6.5 -80.5t-11.5 -113t-17 -132.5t-23 -138h-276q-5 0 -9.5 -2t-8.5 -6v0q-3 -3 -4 -8t-1 -10v0q17 -83 35.5 -143.5t38.5 -99.5q21 -41 45 -61t51 -20h591q28 0 52.5 21.5t45.5 64.5q21 42 39.5 106.5
t35.5 153.5q9 46 16.5 96.5t15 106t14 116t11.5 126.5l1 13v18q1 1 1 1.5v1.5v0q0 1 -0.5 2t-0.5 2v0zM180 70q-11 0 -45 40t-74 223h545q21 -97 43.5 -162.5t49.5 -100.5h-519v0zM897 380q-17 -91 -36 -157t-40 -104q-17 -32 -30 -40.5t-20 -8.5q-12 0 -47.5 44t-76.5 245
q-1 8 -7.5 13t-14.5 5h-271q8 44 16 94t15 104.5t13 112t11 117.5l20 -15q3 -2 6 -3t7 -1h1q4 0 7.5 1t6.5 3l42 31l15 -13l22 -17q3 -3 6.5 -4t8.5 -1q3 0 6.5 1t6.5 3l46 31l9 -7l32 -23v-1q2 -1 4.5 -2.5t5.5 -1.5v0h0.5h0.5h0.5h1.5q4 0 7.5 1t6.5 3l47 32l46 -32
q3 -2 6.5 -3t6.5 -1q4 0 7 1t6 3l2 1l49 31l42 -32h1v-1h0.5h0.5h0.5t0.5 -1h1v0v0v0h1v0l1 -1h1h0.5h0.5v0q1 -1 1.5 -1h0.5h6h0.5t1.5 1h1h1v0v0v0q1 0 1.5 0.5l0.5 0.5h1.5t0.5 1v0l38 21q-2 -29 -6.5 -76.5t-11.5 -105t-16.5 -121.5t-20.5 -127v0zM847 604h-431
q-10 0 -16.5 -6.5t-6.5 -15.5t6.5 -15.5t16.5 -6.5h431q10 0 16.5 6.5t6.5 15.5t-6.5 15.5t-16.5 6.5v0z" />
    <glyph glyph-name="uniE626" unicode="&#xe626;" horiz-adv-x="1045" 
d="M857 642q-29 15 -89.5 27.5t-173.5 -13.5q-40 -9 -94.5 -18t-122 -14.5t-147.5 -5.5t-169 9l-15 2l-10 -10q-9 -9 -11 -70t4 -410v-19l16 -9q3 -1 47 -17.5t116 -16.5q23 0 47.5 3t51.5 9l122.5 28t108.5 17.5t125.5 5t171.5 -8.5q10 -1 20 2.5t17 10.5q8 7 12 16t4 20
v410q0 16 -8 30t-23 22v0zM825 193q-102 8 -171.5 8.5t-126 -5.5t-110.5 -18t-126 -30q-71 -16 -124.5 -6.5t-77.5 18.5q0 51 -1 110.5t-1.5 115.5t-1 103t-0.5 74q99 -8 182.5 -6.5t149 8t113 16t76.5 15.5q100 22 149.5 12.5t69.5 -19.5v-396v0zM963 788q-21 6 -54.5 14
t-77.5 13t-96.5 3.5t-110.5 -14.5q-6 -1 -12.5 -2t-14.5 -4q-72 -17 -136 -30.5t-234 3.5q-13 2 -22.5 -6t-12.5 -21q-2 -13 6.5 -23t21.5 -11q177 -18 248 -3t142 32q8 1 14.5 2.5t12.5 2.5q52 13 99.5 14t87.5 -3.5t70.5 -12t49.5 -12.5q2 -1 4 -3t2 -6v-409
q0 -12 9 -21.5t22 -9.5t22.5 9.5t9.5 21.5v409q0 24 -14 42.5t-36 24.5v0zM639 478h-6q-37 0 -63 -26t-26 -63q0 -36 26 -62t63 -26h6q36 0 62 26t26 62q0 37 -26 63t-62 26v0zM468 337l-54 -13.5t-63 -18.5q-73 -23 -117 -15t-45 8q-12 4 -23.5 -0.5t-16.5 -16.5t0 -23.5
t17 -16.5q1 -1 23.5 -7.5t62.5 -6.5q25 0 54 4.5t63 15.5q32 10 59.5 17.5t51.5 12.5q13 2 19.5 12t4.5 23t-12.5 20t-23.5 5v0z" />
    <glyph glyph-name="uniE800" unicode="&#xe800;" horiz-adv-x="945" 
d="M852 829q-6 16 -20.5 25.5t-31.5 9.5h-655q-17 0 -31.5 -9.5t-20.5 -25.5q-7 -15 -3.5 -31.5t15.5 -28.5l223 -222v-459q0 -17 9.5 -31t24.5 -21q6 -2 11 -3t11 -1q11 0 21.5 4.5t18.5 11.5l180 179q8 8 12 18.5t4 21.5v284l220 218q12 12 15.5 28.5t-3.5 31.5v0z
M424 610l-143 142h383l-140 -139q-8 -8 -12 -18t-4 -21v-284l-68 -67v348q0 11 -4 21t-12 18v0z" />
    <glyph glyph-name="uniE801" unicode="&#xe801;" horiz-adv-x="710" 
d="M706 150l-191 738q-10 38 -42 58.5t-66 10.5l-344 -95q-34 -9 -52 -43t-8 -73l192 -738q10 -38 41.5 -58.5t66.5 -10.5l343 95q35 9 52.5 43t7.5 73v0zM39 756q-6 22 4.5 42t30.5 25l343 95q20 6 38.5 -6t23.5 -34l7 -27l-440 -122l-7 27v0zM56 690l440 122l145 -555
l-441 -122l-144 555v0zM636 73l-343 -95q-20 -6 -38.5 6t-23.5 34l-21 78l441 122l20 -78q6 -22 -4.5 -42t-30.5 -25v0zM448 144q-19 -5 -28.5 -23t-3.5 -39q5 -21 22 -32t36 -5q19 5 28.5 23t3.5 39q-5 21 -22 32t-36 5v0zM467 70q-9 -3 -17.5 2.5t-11.5 15.5q-2 11 2.5 20
t13.5 11q10 3 18.5 -2.5t11.5 -15.5q2 -11 -2.5 -20t-14.5 -11v0zM248 858q-10 -2 -15 -12t-2 -21t12 -17t19 -3t15.5 12.5t2.5 20.5q-3 12 -12.5 17.5t-19.5 2.5v0zM258 819q-4 -1 -8 2t-6 8q-1 5 1.5 9.5t6.5 5.5q5 1 9 -1.5t5 -7.5q2 -5 -0.5 -9.5t-7.5 -6.5v0z" />
    <glyph glyph-name="uniE802" unicode="&#xe802;" horiz-adv-x="1162" 
d="M1159 452q-9 44 -15 88.5t-11 88.5l-1 11q-6 44 -12 89.5t-14 90.5q-11 51 -60 94t-98 45q-9 1 -17.5 1h-17.5q-42 0 -83 -3t-77 -7q-8 0 -15.5 -0.5t-14.5 -1.5l-64 -4t-63 -2h-5q-38 0 -78.5 -0.5t-83.5 -1.5t-89 -2t-95 -3q-26 -1 -50 -10t-44 -25t-33.5 -37.5
t-18.5 -44.5q-8 -38 -18.5 -75.5t-20.5 -73.5q-2 -9 -4.5 -17.5t-5.5 -17.5q-12 -43 -24.5 -88t-22.5 -90q-10 -49 8.5 -114t45.5 -104q24 -33 47 -67t45 -68l49 -73q30 -43 86 -68t102 -26h151q59 0 119 1t118 2v0q41 1 103.5 20t93.5 62q20 28 37 57.5t33 60.5
q2 4 4.5 8.5t4.5 9.5q14 25 28 49.5t30 45.5q26 34 43.5 91t7.5 109v0zM52 361q-6 26 -7.5 48t2.5 38q9 37 19.5 75.5t20.5 75.5q2 6 3.5 12t2.5 12q11 37 22.5 79t20.5 85q16 2 41.5 3t56.5 1q46 0 93.5 -2t90.5 -6l8 -1l20 -2l20 -2q-20 -10 -31 -20.5t-13 -22.5
q-1 -3 -2.5 -11.5t-5.5 -19.5v-1q0 -4 -1 -8l-2 -8q-11 -55 -19.5 -121t13.5 -107q-15 -2 -31 -3.5t-31 -2.5q-32 -3 -73 -9.5t-82 -17.5t-77.5 -26.5t-58.5 -37.5v0zM254 56q-4 -1 -7 -3.5t-6 -6.5q-2 3 -4.5 6t-4.5 6l-48 71q-18 27 -36 53.5t-36 52.5q-5 8 -10.5 15.5
t-10.5 14.5q-7 10 -13 22t-11 25l3 3v0q13 27 73.5 50t151.5 36l9 -49.5t10.5 -86t0 -95.5t-21.5 -80q-7 -14 -17 -22t-22 -12v0zM773 -17q-69 -2 -127.5 -2.5t-111.5 -0.5q-39 0 -75.5 0.5t-71.5 0.5q-25 1 -55 10.5t-55 25.5q36 15 54 51.5t23.5 84.5t2 102.5t-11.5 105.5
l-2 12q-2 9 -3.5 17t-2.5 14q1 1 2 1h1h3h3v0q36 4 63.5 6.5t50.5 5.5l1 -0.5l1 -0.5q1 0 2 -0.5t2 -0.5h65q52 0 124.5 -1t148.5 -7q7 -1 13.5 -2t13.5 -2v-1q-2 -9 -4.5 -21t-4.5 -28q-8 -50 -12.5 -104t0.5 -102t22.5 -85t51.5 -53q-25 -11 -55 -18.5t-56 -7.5v0z
M1074 279q-22 -30 -39.5 -62t-31.5 -58l-6 -11q-13 -25 -28 -51t-31 -49q-3 -4 -5.5 -7t-6.5 -5q-2 4 -5.5 6.5t-7.5 3.5q-12 4 -21.5 12t-16.5 21q-16 28 -20 70t-2 87.5t8.5 88.5t13.5 74q86 -13 145.5 -36t75.5 -49q-5 -10 -11 -19t-11 -16v0zM1113 362q-39 35 -112.5 55
t-138.5 30h-4l-8 1q-12 1 -22.5 2.5t-18.5 1.5q-59 6 -118.5 7.5t-111.5 1.5h-12.5h-12.5h-10h-10h-65q-7 0 -13 3t-10 9q-21 29 -9.5 100t20.5 113l2 6q1 4 1.5 8t1.5 8q2 4 2.5 8.5t1.5 7.5q4 8 65.5 29t202.5 34q19 2 39.5 2.5t42.5 0.5q74 0 133.5 -7t77.5 -10l9 -1h1h1
q9 0 15 5t7 14q0 4 -1 8.5t-3 7.5q-3 4 -6.5 6t-8.5 3l-15 2q-30 4 -88.5 10t-127.5 6q-21 0 -41 -0.5t-39 -2.5q-27 -2 -71 -7.5t-89 -14.5q-32 5 -68 9.5t-79 8.5q-44 5 -92 7t-93 2q-25 0 -47 -1t-39 -2q14 25 40 41t55 17q38 2 77.5 3t82 2t88.5 1.5t97 0.5h6
q33 0 66.5 2t65.5 4q7 1 14 1.5t14 0.5q5 1 10 1.5t9 0.5q35 3 70.5 5.5t70.5 2.5h15t14 -1q36 -2 73.5 -34.5t45.5 -69.5q9 -45 15 -91t10 -90l2 -10q5 -44 11 -88t14 -88q4 -18 2.5 -39.5t-7.5 -42.5v0zM725 637h-1h-1h-3q-7 1 -26 2.5t-47 1.5q-23 0 -45.5 -1.5
t-44.5 -3.5q-8 -1 -13.5 -8t-5.5 -15v-1q1 -9 7 -14.5t14 -5.5h1h1q21 2 42.5 3t44.5 1q31 0 51 -1.5l20 -1.5h1h1q8 0 14.5 5.5t7.5 13.5q1 9 -4.5 16.5t-13.5 8.5v0z" />
    <glyph glyph-name="uniE803" unicode="&#xe803;" horiz-adv-x="801" 
d="M361 335h-20v330q0 10 -7.5 18t-18.5 8h-35v243q0 8 -4.5 14.5t-11.5 9.5t-14.5 1.5t-12.5 -7.5l-125 -129q-4 -3 -6 -8t-2 -10v-114h-34q-10 0 -17.5 -8t-7.5 -18v-330h-20q-10 0 -17.5 -7.5t-7.5 -18.5v-346q0 -11 7.5 -18.5t17.5 -7.5h336q10 0 17.5 7.5t7.5 18.5v346
q0 11 -7.5 18.5t-17.5 7.5v0zM155 794l74 77v-180h-74v103v0zM96 639h194v-213h-194v213v0zM96 374h194v-39h-194v39v0zM335 -11h-285v294h285v-137h-142q-11 0 -18 -7.5t-7 -18.5q0 -10 7 -18t18 -8h142v-105v0zM612 625q-40 0 -74.5 -15.5t-60 -42t-40.5 -62.5t-15 -76
v-467q0 -11 7 -18.5t18 -7.5h329q11 0 18 7.5t7 18.5v467q0 40 -14.5 76t-40.5 62.5t-60.5 42t-73.5 15.5v0zM751 -12h-279v441q0 59 41 101.5t99 42.5q57 0 98 -42.5t41 -101.5v-441v0zM612 530q-11 0 -18.5 -7.5t-7.5 -18.5t7.5 -18.5t18.5 -7.5q19 0 33 -14.5t14 -34.5
q0 -10 7 -18t18 -8q10 0 17.5 8t7.5 18q0 42 -28.5 71.5t-68.5 29.5v0z" />
    <glyph glyph-name="uniE804" unicode="&#xe804;" horiz-adv-x="811" 
d="M692 625q-40 40 -88 67t-102 40l117 154l-48 74h-332l-47 -74l116 -154q-53 -13 -101 -40t-88 -67q-58 -57 -88.5 -131t-30.5 -154q0 -81 30.5 -155t88.5 -131q28 -28 61.5 -50t70 -37t75.5 -23t79 -8q41 0 80 8t75.5 23t69.5 37t62 50q57 57 88 131t31 155q0 80 -31 154
t-88 131v0zM237 888l23 35h291l23 -35l-5 -7h-327l-5 7v0zM270 844h271l-79 -105q-14 2 -28 3t-29 1q-14 0 -28 -1t-28 -3l-79 105v0zM405 -27q-76 0 -143 29t-117 78.5t-79 116.5t-29 143q0 69 24 130.5t66.5 109.5t100 80t123.5 42h108q67 -10 124.5 -42t99.5 -80
t66.5 -109.5t24.5 -130.5q0 -76 -29 -143t-79 -116.5t-117.5 -78.5t-143.5 -29v0zM405 648q-64 0 -120.5 -24t-98.5 -66t-66.5 -98.5t-24.5 -119.5q0 -64 24.5 -120.5t66.5 -98.5t98.5 -66t120.5 -24t120.5 24t99 66t67 98.5t24.5 120.5q0 63 -24.5 119.5t-67 98.5t-99 66
t-120.5 24v0zM405 68q-56 0 -106 21t-87 58t-58.5 86.5t-21.5 105.5q0 57 21.5 106.5t58.5 86.5t87 58t106 21q57 0 106.5 -21t86.5 -58t58.5 -86.5t21.5 -106.5q0 -56 -21.5 -105.5t-58.5 -86.5t-86.5 -58t-106.5 -21v0z" />
    <glyph glyph-name="uniE805" unicode="&#xe805;" horiz-adv-x="926" 
d="M897 682l-180 243q-3 5 -8.5 8t-10.5 3h-469q-6 0 -11 -3t-8 -8l-180 -243q-2 -3 -4 -7.5t-2 -8.5v-680q0 -10 7.5 -18t17.5 -8h829q10 0 17 8t7 18v680q0 4 -1 8t-4 8v0zM488 882h197l141 -190h-340v190h2v0zM241 882h198v-190h-340l142 190v0zM853 13h-780v626h780
v-626v0z" />
    <glyph glyph-name="uniE806" unicode="&#xe806;" horiz-adv-x="1257" 
d="M728 867h-589l-93 93l-46 -46l93 -93v-854l30 -31h620l31 31v854l93 93l-46 46l-93 -93v0zM709 1h-449l449 231v-231v0zM709 305l-551 -283v249l551 283v-249v0zM709 627l-551 -283v458h551v-175v0zM438 726h-209v-65h209v65v0zM1242 279l-58 229q-6 21 -8.5 43.5
t-2.5 44.5v69l-31 30h-148l-30 -30v-69q0 -22 -2.5 -44.5t-8.5 -43.5l-58 -229q-7 -30 -11 -61t-4 -62v-134q0 -36 25 -61t61 -25h205q36 0 61 25t25 61v134q0 31 -4 62t-11 61v0zM1192 22q0 -9 -6 -15t-15 -6h-205q-9 0 -15 6t-6 15v134q0 27 3.5 54t9.5 53l58 229
q6 25 9.5 51.5t3.5 52.5v34h79v-34q0 -26 3.5 -52.5t9.5 -51.5l58 -229q6 -26 9.5 -53t3.5 -54v-134v0zM1147 778h-157v-65h157v65v0z" />
    <glyph glyph-name="uniE807" unicode="&#xe807;" horiz-adv-x="683" 
d="M631 309q-25 62 -52 112t-37 68l79 180q1 4 1 8.5t-2 8.5t-5 7t-7 4q-27 8 -46.5 23t-30.5 37q-28 54 -15.5 114.5t13.5 61.5q1 4 0.5 9t-3.5 9t-7.5 6.5t-9.5 2.5h-73q-6 0 -11 -3.5t-8 -9.5q-9 -5 -28.5 -11t-47.5 -6q-27 0 -46.5 6t-29.5 11q-2 6 -7 9.5t-12 3.5h-72
q-5 0 -9.5 -2.5t-7.5 -6.5t-3.5 -9t0.5 -9q0 -1 12.5 -61.5t-14.5 -113.5q-11 -22 -30.5 -37.5t-46.5 -23.5q-4 -1 -7.5 -4t-5.5 -7t-2 -8.5t2 -8.5l79 -180q-11 -18 -37.5 -68t-52.5 -112q-43 -106 -50 -180.5t23 -117.5q22 -32 43 -47.5t42 -15.5h5h5q11 3 21.5 9.5
t18.5 18.5q12 -18 26 -28t30 -12h3h3q16 0 31.5 8.5t30.5 25.5q11 -16 26 -25t32 -9v0q18 0 33 8.5t26 25.5q15 -17 30.5 -25.5t30.5 -8.5h3.5h3.5q16 2 30 12t26 28q8 -12 18.5 -19t21.5 -9h4.5h5.5q20 0 41 15.5t44 47.5q29 43 22.5 117.5t-50.5 180.5v0zM341 785
q-26 0 -47.5 33.5t-28.5 83.5q13 -5 32.5 -9t43.5 -4q25 0 44 4t32 9q-6 -50 -27.5 -83.5t-48.5 -33.5v0zM429 805q13 23 21.5 52.5t9.5 61.5h22q-7 -32 -9.5 -83t21.5 -97q13 -25 33 -43.5t47 -30.5l-74 -170q-2 -4 -1.5 -9t2.5 -9q1 -1 18 -31t39 -76q-52 -20 -107 -30
t-112 -10q-23 0 -46 1.5t-45 5.5q-45 7 -77 17t-47 16q23 46 40 76t17 31q3 4 3.5 9t-1.5 9l-74 170q27 12 47 30.5t33 43.5q24 46 21.5 97t-9.5 83h21q2 -32 10 -61.5t21 -52.5q17 -30 40 -45.5t48 -15.5q26 0 48.5 15.5t39.5 45.5v0zM107 332q15 -6 49.5 -17t83.5 -19
q25 -4 49.5 -6t49.5 -2q61 0 120.5 11.5t116.5 33.5q4 -10 8.5 -20t8.5 -20q11 -28 20 -53.5t15 -48.5q-1 0 -2.5 -0.5t-3.5 -0.5q-67 -24 -138.5 -35.5t-144.5 -11.5q-29 0 -57 2t-56 5q-75 10 -120 24.5l-45 14.5q-2 1 -3.5 1t-2.5 1q6 23 14.5 48.5t20.5 53.5q3 9 7.5 19
t9.5 20v0zM636 150l0.5 0.5l0.5 0.5q7 -40 3.5 -69t-15.5 -48q-15 -21 -29 -33t-23 -12h-0.5h-1.5q-9 2 -17 16t-10 23q-2 7 -7 11t-12 4q-7 1 -12.5 -3t-8.5 -11q-4 -11 -15.5 -30.5t-25.5 -21.5q-9 -1 -22 10.5t-27 33.5q-3 5 -7.5 7.5t-10.5 2.5h-1h-2q-6 -1 -10.5 -5
t-6.5 -10l-8.5 -19.5t-26.5 -19.5q-17 0 -26 19.5l-9 19.5q-1 6 -6 10t-11 5h-1h-2q-5 0 -9.5 -2.5t-7.5 -7.5q-13 -21 -25.5 -32.5t-22.5 -11.5h-0.5h-1.5q-13 2 -25 21t-16 31q-2 7 -7.5 10.5t-11.5 3.5h-0.5h-0.5q-7 0 -12.5 -4t-6.5 -11q-3 -9 -10.5 -23t-17.5 -16h-0.5
h-1.5q-9 0 -22.5 12t-28.5 34q-13 18 -16 47t4 69q5 -3 51.5 -17.5t122.5 -24.5q30 -3 59.5 -5t59.5 -2q77 0 151.5 12t145.5 36v0z" />
    <glyph glyph-name="uniE808" unicode="&#xe808;" horiz-adv-x="975" 
d="M974 779q-2 5 -5 9t-8 6l-320 158q-7 4 -15.5 2.5t-14.5 -7.5q-27 -31 -55.5 -46.5t-57.5 -15.5q-51 0 -85.5 32.5l-34.5 32.5q-5 7 -14 9t-17 -2l-333 -162q-4 -2 -7.5 -6t-5.5 -9q-1 -5 -0.5 -10.5t2.5 -9.5l111 -211q5 -9 14.5 -12t18.5 1l93 44q-18 -129 -24 -213
t-5.5 -134t4 -71.5t4.5 -25.5q1 -7 5.5 -13t11.5 -8q46 -16 81 -40.5t58 -57.5q17 -25 22.5 -43l5.5 -18q2 -10 9 -16t16 -6h155q9 0 15.5 5.5t8.5 14.5q25 113 86.5 136t78.5 23h1.5h0.5q5 -1 10 0.5t9 5.5q3 3 5.5 7.5t2.5 9.5q7 101 5 167.5t-8.5 114t-15 82.5t-16.5 72
l60 -35q5 -2 10 -2.5t10 0.5t9 4.5t6 7.5l111 210q3 5 3.5 10t-1.5 10v0zM829 597l-87 50q-7 4 -14.5 3.5t-13.5 -5.5q-7 -4 -9 -11.5t-1 -15.5q1 0 11 -23t20.5 -76t17 -139.5t-0.5 -215.5q-16 -1 -37.5 -7t-45.5 -21q-39 -22 -65.5 -59.5t-40.5 -89.5h-116
q-9 30 -47.5 83.5t-131.5 89.5q-2 23 -5 54t-1.5 82.5t9.5 129.5t27 195q1 7 -2 13.5t-8 10.5q-6 5 -13 5.5t-13 -2.5l-114 -54l-88 166l292 143q18 -18 56 -43.5t90 -25.5q36 0 70.5 16t67.5 48l279 -138l-86 -163v0zM593 594q-8 1 -18 3.5t-22 8.5q-7 3 -15.5 0t-11.5 -11
q-4 -8 -1 -16t11 -12q16 -7 30.5 -11t26.5 -4q13 0 27.5 4t30.5 11q8 4 11 12t-1 16q-3 8 -11.5 11t-16.5 0q-11 -6 -21 -8.5t-19 -3.5v0z" />
    <glyph glyph-name="uniE900" unicode="&#xe900;" horiz-adv-x="1172" 
d="M3 832v-96h1167v96h-1167v0zM3 400h1167v96h-1167v-96v0zM3 64h1167v96h-1167v-96v0z" />
    <glyph glyph-name="uniE901" unicode="&#xe901;" 
d="M1024 900l-59 59l-453 -452l-453 452l-59 -59l453 -452l-453 -452l59 -59l453 452l453 -452l59 59l-453 452z" />
    <glyph glyph-name="uniE902" unicode="&#xe902;" horiz-adv-x="843" 
d="M30 255v97h783v-97h-783v0zM30 930h783v-96h-783v96v0zM552 544h-522v97h522v-97v0zM552 -34h-522v96h522v-96v0z" />
    <glyph glyph-name="uniE903" unicode="&#xe903;" horiz-adv-x="1082" 
d="M270 562l15 92h-214l-67 -411h213l15 92h-119l12 70h115l15 92h-115l10 64h120v1zM624 654l-120 -271h-1l-31 271h-127l-67 -411h90l48 307l1 1l31 -308h65l133 308v-1l-53 -307h90l68 411h-127v0zM922 574q15 0 22 -10t7 -30h97q3 24 0 44.5t-12 36.5q-7 11 -17.5 20
t-24.5 15q-12 6 -26 8.5t-28 2.5q-27 0 -51 -8t-46 -23q-25 -18 -39 -40t-19 -50q-3 -22 1 -40.5t15 -33.5q5 -7 11.5 -13t14.5 -12q7 -4 15 -9t18 -9l38 -20l7 -3q4 -3 7 -5t5 -4q5 -6 7 -13t1 -16q-3 -20 -14 -29.5t-30 -9.5q-10 0 -17 4t-10 13q-4 8 -4.5 17.5t0.5 21.5
h-97l-2 -14q-6 -31 0.5 -55.5t23.5 -42.5q16 -16 39 -24t54 -8q30 0 55 7.5t45 23.5q22 16 35.5 40t18.5 55q4 22 0.5 40.5t-13.5 33.5q-5 6 -11 12t-14 12q-6 4 -14 9t-18 11l-37 19q-14 8 -21.5 14.5t-9.5 11.5q-2 3 -2 7.5t1 9.5q3 17 12.5 25t26.5 8v0z" />
  </font>
</defs>
</svg>
